<svg width="378" height="85" viewBox="0 0 378 85" fill="none" xmlns="http://www.w3.org/2000/svg">
<path d="M27.5549 82.3476C20.4998 82.963 14.7363 81.0728 10.2642 76.6772C5.83824 72.2776 3.29348 66.2735 2.62991 58.6651C1.97439 51.1489 3.51253 44.812 7.24434 39.6544C10.9721 34.4508 16.4788 31.5312 23.7645 30.8958C28.929 30.4454 33.3551 31.3835 37.0427 33.7103C40.7764 36.033 43.2965 39.6231 44.6029 44.4807L39.8304 44.8969C38.7749 41.3184 36.8485 38.6755 34.0512 36.968C31.2539 35.2606 27.9417 34.5737 24.1144 34.9075C18.0276 35.4384 13.5934 37.8694 10.8117 42.2008C8.03002 46.5321 6.91666 51.8794 7.47165 58.2428C8.02261 64.5601 10.0428 69.611 13.5323 73.3953C17.0178 77.1336 21.5964 78.7554 27.2682 78.2607C32.6633 77.7902 36.5843 75.8685 39.0315 72.4956C41.5207 69.0726 42.5622 65.0325 42.156 60.3752L42.0052 58.646L26.0967 60.0335L25.7407 55.9526L46.2144 54.167L48.4283 79.5515L45.1774 79.835L43.5213 72.0343L43.3138 72.0524C40.0474 78.2845 34.7945 81.7163 27.5549 82.3476ZM58.0204 78.7149L53.7072 29.2601L87.3227 26.3283L87.6786 30.4092L58.6973 32.9368L60.2477 50.7128L86.808 48.3964L87.1579 52.4081L60.5976 54.7246L62.2806 74.0223L92.0227 71.4284L92.3967 75.7168L58.0204 78.7149ZM114.368 73.8005L110.417 28.4957L93.6784 29.9556L93.3165 25.8055L131.359 22.4877L131.721 26.6378L115.051 28.0916L119.002 73.3964L114.368 73.8005ZM154.782 70.2759L150.468 20.821L155.103 20.4169L159.416 69.8717L154.782 70.2759ZM183.566 67.7655L179.614 22.4607L162.876 23.9206L162.514 19.7705L200.556 16.4527L200.918 20.6027L184.249 22.0565L188.2 67.3613L183.566 67.7655ZM223.771 64.2589L219.458 14.8041L224.507 14.3637L250.292 47.1012C251.126 48.1435 252.019 49.3202 252.969 50.6312C253.916 51.896 254.656 52.9233 255.19 53.7131L255.915 54.8347L256.053 54.8226L252.313 11.9387L256.74 11.5526L261.053 61.0075L256.211 61.4297L230.532 29.1012L224.614 21.1844L224.476 21.1965L228.198 63.8729L223.771 64.2589ZM292.038 55.0991C297.802 54.5964 302.098 52.1774 304.926 47.8421C307.796 43.4566 308.959 38.1514 308.417 31.9263C307.874 25.7012 305.811 20.7005 302.23 16.9242C298.69 13.0977 294.038 11.4358 288.274 11.9385C282.556 12.4372 278.286 14.8773 275.462 19.2587C272.634 23.594 271.491 28.8743 272.034 35.0993C272.577 41.3244 274.619 46.3502 278.158 50.1766C281.694 53.957 286.321 55.5978 292.038 55.0991ZM292.4 59.2492C285.53 59.8484 279.762 57.9122 275.098 53.4404C270.479 48.9646 267.844 42.9917 267.193 35.5216C266.541 28.0515 268.102 21.7126 271.876 16.5049C275.696 11.2932 281.042 8.38771 287.912 7.78849C294.829 7.18525 300.62 9.11949 305.284 13.5912C309.949 18.063 312.607 24.0339 313.258 31.504C313.91 38.9741 312.326 45.315 308.506 50.5267C304.686 55.7385 299.317 58.6459 292.4 59.2492ZM331.189 54.8906L313.734 6.58189L318.506 6.16565L329.991 38.7564L333.124 48.31L333.262 48.2979C333.838 44.2519 334.347 41.0248 334.787 38.6168L340.916 4.21114L345.897 3.7768L357.883 36.5328L360.998 45.8789L361.137 45.8668C361.705 41.7286 362.182 38.4113 362.569 35.9151L368.307 1.82229L372.941 1.41811L363.836 52.0432L359.132 52.4535L346.583 17.2375L343.946 9.38301L343.808 9.39507C343.398 12.6832 343.008 15.412 342.64 17.5814L336.1 54.4623L331.189 54.8906Z" fill="black"/>
</svg>
