<svg width="83" height="88" viewBox="0 0 83 88" fill="none" xmlns="http://www.w3.org/2000/svg">
<path d="M81.0499 62.48C80.6099 61.424 80.1699 60.28 79.7299 59.312C79.0259 57.728 78.3219 56.232 77.7059 54.824L77.6179 54.736C71.5459 41.536 65.0339 28.16 58.1699 14.96L57.9059 14.432C57.2019 13.112 56.4979 11.704 55.7939 10.296C54.9139 8.712 54.0339 7.04 52.6259 5.456C49.8099 1.936 45.7619 0 41.4499 0C37.0499 0 33.0899 1.936 30.1859 5.28C28.8659 6.864 27.8979 8.536 27.0179 10.12C26.3139 11.528 25.6099 12.936 24.9059 14.256L24.6419 14.784C17.8659 27.984 11.2659 41.36 5.19392 54.56L5.10591 54.736C4.48991 56.144 3.78591 57.64 3.08191 59.224C2.64191 60.192 2.20192 61.248 1.76192 62.392C0.617915 65.648 0.265918 68.728 0.705915 71.896C1.67392 78.496 6.07391 84.04 12.1459 86.504C14.4339 87.472 16.8099 87.912 19.2739 87.912C19.9779 87.912 20.8579 87.824 21.5619 87.736C24.4659 87.384 27.4579 86.416 30.3619 84.744C33.9699 82.72 37.4019 79.816 41.2739 75.592C45.1459 79.816 48.6659 82.72 52.1859 84.744C55.0899 86.416 58.0819 87.384 60.9859 87.736C61.6899 87.824 62.5699 87.912 63.2739 87.912C65.7379 87.912 68.2019 87.472 70.4019 86.504C76.5619 84.04 80.8739 78.408 81.8419 71.896C82.5459 68.816 82.1939 65.736 81.0499 62.48ZM41.3619 67.056C36.6099 61.072 33.5299 55.44 32.4739 50.688C32.0339 48.664 31.9459 46.904 32.2099 45.32C32.3859 43.912 32.9139 42.68 33.6179 41.624C35.2899 39.248 38.1059 37.752 41.3619 37.752C44.6179 37.752 47.5219 39.16 49.1059 41.624C49.8099 42.68 50.3379 43.912 50.5139 45.32C50.7779 46.904 50.6899 48.752 50.2499 50.688C49.1939 55.352 46.1139 60.984 41.3619 67.056ZM76.4739 71.192C75.8579 75.768 72.7779 79.728 68.4659 81.488C66.3539 82.368 64.0659 82.632 61.7779 82.368C59.5779 82.104 57.3779 81.4 55.0899 80.08C51.9219 78.32 48.7539 75.592 45.0579 71.544C50.8659 64.416 54.3859 57.904 55.7059 52.096C56.3219 49.368 56.4099 46.904 56.1459 44.616C55.7939 42.416 55.0019 40.392 53.7699 38.632C51.0419 34.672 46.4659 32.384 41.3619 32.384C36.2579 32.384 31.6819 34.76 28.9539 38.632C27.7219 40.392 26.9299 42.416 26.5779 44.616C26.2259 46.904 26.3139 49.456 27.0179 52.096C28.3379 57.904 31.9459 64.504 37.6659 71.632C34.0579 75.68 30.8019 78.408 27.6339 80.168C25.3459 81.488 23.1459 82.192 20.9459 82.456C18.5699 82.72 16.2819 82.368 14.2579 81.576C9.94589 79.816 6.86591 75.856 6.24991 71.28C5.98591 69.08 6.16192 66.88 7.04191 64.416C7.30591 63.536 7.74591 62.656 8.18591 61.6C8.80189 60.192 9.50589 58.696 10.2099 57.2L10.2979 57.024C16.3699 43.912 22.8819 30.536 29.6579 17.512L29.9219 16.984C30.6259 15.664 31.3299 14.256 32.0339 12.936C32.7379 11.528 33.5299 10.208 34.4979 9.064C36.3459 6.952 38.8099 5.808 41.5379 5.808C44.2659 5.808 46.7299 6.952 48.5779 9.064C49.5459 10.208 50.3379 11.528 51.0419 12.936C51.7459 14.256 52.4499 15.664 53.1539 16.984L53.4179 17.512C60.1059 30.624 66.6179 44 72.6899 57.112V57.2C73.3939 58.608 74.0099 60.192 74.7139 61.6C75.1539 62.656 75.5939 63.536 75.8579 64.416C76.5619 66.704 76.8259 68.904 76.4739 71.192Z" fill="#070707"/>
</svg>
