<svg width="99" height="86" viewBox="0 0 99 86" fill="none" xmlns="http://www.w3.org/2000/svg">
<path fill-rule="evenodd" clip-rule="evenodd" d="M87.3338 60.9738V1.88716H63.3264C61.7695 1.88716 60.231 3.61342 60.231 5.15653V10.3811C60.231 10.3811 53.8571 0.788208 32.8673 0.788208C20.3164 0.788208 9.78942 8.18321 4.38628 19.2872C-0.0644573 28.4588 -0.728405 39.059 0.626963 49.1418C1.43744 55.1952 3.00344 61.2165 5.84695 66.6196C6.10795 67.1096 6.38269 67.595 6.66658 68.0757C15.5131 83.2275 38.3712 90.6545 53.8525 80.9105C56.0962 79.4956 61.6825 75.5669 61.9664 72.6684C61.9664 72.6684 60.9728 81.7439 71.8203 83.7037C84.1789 85.9382 98.9506 81.7347 98.9506 81.7347V63.6937C98.9506 63.6937 97.1923 64.6553 92.1463 64.6553C87.0957 64.6553 87.3338 60.9738 87.3338 60.9738ZM61.5223 57.5487C61.5223 59.7558 55.3499 62.0636 53.7518 62.5856C50.0062 63.8082 45.7845 63.9318 41.9016 63.4098C38.1652 62.9061 34.3326 61.8072 31.4158 59.4399C27.3405 56.1339 25.4494 50.7902 24.932 45.6024C24.4878 41.1333 25.0373 36.3529 26.9971 32.3784C28.0136 30.327 29.3919 28.4863 31.2052 27.021C34.9095 24.0264 40.1707 22.9778 44.9512 23.2846C46.92 23.4128 61.5223 25.6611 61.5223 28.3855V57.5487Z" fill="#070707"/>
</svg>
