<svg width="53" height="52" viewBox="0 0 53 52" fill="none" xmlns="http://www.w3.org/2000/svg">
<path d="M0.958636 5.95379C0.794285 8.35659 2.98741 10.2766 5.35038 9.79867L36.2824 3.54202C38.7014 3.05276 40.4439 5.84403 38.9064 7.75764C34.7046 12.9881 28.9677 19.9845 24.3348 25.1055C18.2384 31.8438 9.11189 40.7962 4.54377 45.2194C3.05191 46.664 3.1741 49.1023 4.80907 50.4272C6.41403 51.7277 8.77355 51.3848 9.90288 49.6878C13.3976 44.4351 20.57 33.7802 26.036 26.4839C30.1781 20.9551 35.8984 13.9399 40.1819 8.77621C41.7446 6.89261 44.822 8.02473 44.8447 10.4854L45.137 42.0369C45.1595 44.4477 47.4925 46.1951 49.809 45.5361C51.6894 45.0011 52.7844 43.0681 52.282 41.1701L47.9474 24.7893C46.7205 20.1527 46.1167 15.382 46.1517 10.6029L46.2084 2.20749C46.2159 1.10089 45.1846 0.264293 44.1033 0.499832L35.891 2.2889C31.223 3.31402 26.4307 3.71232 21.6406 3.47346L4.71709 2.62928C2.75614 2.53138 1.09212 4.00327 0.958636 5.95379Z" fill="black"/>
</svg>
